<svg id="Capa_1" data-name="Capa 1" xmlns="http://www.w3.org/2000/svg" viewBox="0 0 1866.35 926.34"><defs><style>.cls-1{fill:#fff;stroke:#fff;stroke-miterlimit:10;}</style></defs><title>logo-sin</title><polygon class="cls-1" points="315.02 217.87 339.85 221.59 318.75 252.63 300.13 241.46 315.02 217.87"/><path class="cls-1" d="M315.21,793.23C229.83,831.12,160,823,134,764.68,112.68,717,327.63,351.29,327.63,351.29l-7.45-14.89S-28.28,822.27,35.89,959.58c33.9,72.55,165.25,54.89,332.69-18.61,121.63-53.4,264-133.32,406.84-221.28l-133.29-107C525.83,685.65,412.22,750.19,315.21,793.23Z" transform="translate(-27.5 -80.04)"/><path class="cls-1" d="M1539.21,193.64l-151.44-113s-172.1,136.67-393.63,294.69L1145.67,477C1370.42,322.08,1539.21,193.64,1539.21,193.64Z" transform="translate(-27.5 -80.04)"/><path class="cls-1" d="M722.57,561.26l144.36,101C919.1,629,970.72,595.22,1020.81,561.76L871.31,461.48C822.55,495.05,772.6,528.65,722.57,561.26Z" transform="translate(-27.5 -80.04)"/><path class="cls-1" d="M1012.52,679.85l53.3,52.31c60.55-33.58,120.42-68.42,178.65-103.51l-57.94-56.15C1123.51,612.69,1065.63,648.27,1012.52,679.85Z" transform="translate(-27.5 -80.04)"/><path class="cls-1" d="M692.89,852.54,732.7,897.6q34.5-14.76,69.48-30.92l-41.7-47.2Q723.55,838.16,692.89,852.54Z" transform="translate(-27.5 -80.04)"/><path class="cls-1" d="M837.6,779.19l43.89,49.68q52.8-26,105.76-54.1l-46.7-52.87Q885,753.75,837.6,779.19Z" transform="translate(-27.5 -80.04)"/><path class="cls-1" d="M1893,191.18l-79.45-54.62c-205.61,152.91-382.9,276.37-534.43,376l63.14,56.06C1652,374.74,1893,191.18,1893,191.18Z" transform="translate(-27.5 -80.04)"/><path class="cls-1" d="M528.71,918.64l42.21,41c20.25-6.74,40.81-14.06,61.57-21.81L595,895.39C549.71,913.41,528.71,918.64,528.71,918.64Z" transform="translate(-27.5 -80.04)"/><path class="cls-1" d="M1014.09,824.3l28.55,24.83c15.5-4.35,33-10.15,52-17.07l-22.32-33.53C1035.7,814.92,1014.09,824.3,1014.09,824.3Z" transform="translate(-27.5 -80.04)"/><path class="cls-1" d="M1828.45,466.77l-44.69-33.51c-101.42,65.29-234.27,136.28-361,199.64l36.36,31.52C1652.31,565.89,1828.45,466.77,1828.45,466.77Z" transform="translate(-27.5 -80.04)"/><path class="cls-1" d="M1109.85,782l27.77,31.86s46.88-17.84,67.6-26.91l-35.8-32.58C1148.86,763.83,1127.09,774.15,1109.85,782Z" transform="translate(-27.5 -80.04)"/><path class="cls-1" d="M1226.18,728l29.08,36.16c39.56-18.29,80.9-38.21,122.48-58.78l-33.66-33.66C1302.7,691.8,1262.91,710.74,1226.18,728Z" transform="translate(-27.5 -80.04)"/></svg>