<svg id="Capa_1" data-name="Capa 1" xmlns="http://www.w3.org/2000/svg" viewBox="0 0 1857 685.31"><defs><style>.cls-1{fill:#fff;stroke:#fff;stroke-miterlimit:10;}</style></defs><title>Sin título-1</title><path class="cls-1" d="M699,828.85H660.93v34.6H703.5V881.1h-61V763.32h58.75V781H660.93v30.41H699Z" transform="translate(-37.5 -198.21)"/><path class="cls-1" d="M785.62,757V857.16c0,8.73.3,18.17.61,23.94H769.74L769,867.64h-.3A25.77,25.77,0,0,1,744.86,883c-17.39,0-31.17-17.3-31.17-43.51-.15-28.48,15.13-45.43,32.67-45.43,10,0,17.23,4.89,20.53,11.18h.3V757Zm-18.43,74.44a35.11,35.11,0,0,0-.45-5.59c-1.65-8.39-7.49-15.2-15.89-15.2-11.84,0-18.43,12.23-18.43,28.13,0,15.55,6.59,26.91,18.28,26.91,7.5,0,14.09-5.94,15.89-15.2a27.71,27.71,0,0,0,.6-6.29Z" transform="translate(-37.5 -198.21)"/><path class="cls-1" d="M825,772.24c0,6.46-4,11.53-10.49,11.53-6.14,0-10.19-5.07-10.19-11.53,0-6.65,4.2-11.71,10.34-11.71C821,760.53,824.89,765.59,825,772.24ZM805.4,881.1V796H824v85.1Z" transform="translate(-37.5 -198.21)"/><path class="cls-1" d="M897.42,878.48c-3.9,2.09-11.54,4.36-20.68,4.36-22.78,0-37.62-17-37.62-43.33,0-25.51,15-45.43,40.62-45.43,6.74,0,13.64,1.75,17.83,4l-3.3,16.07a28.63,28.63,0,0,0-13.93-3.32c-14.09,0-22.49,12.06-22.33,27.61,0,17.47,9.74,27.43,22.33,27.43a31.77,31.77,0,0,0,14.53-3.31Z" transform="translate(-37.5 -198.21)"/><path class="cls-1" d="M930.69,772.24c0,6.46-4.05,11.53-10.49,11.53-6.15,0-10.19-5.07-10.19-11.53,0-6.65,4.19-11.71,10.34-11.71S930.54,765.59,930.69,772.24ZM911.05,881.1V796h18.59v85.1Z" transform="translate(-37.5 -198.21)"/><path class="cls-1" d="M1018.81,837.76c0,31.28-18.89,45.26-37.47,45.26-20.68,0-36.57-16.6-36.57-43.86,0-28,15.74-45.08,37.77-45.08C1004.27,794.08,1018.81,811.9,1018.81,837.76Zm-55,.87c0,16.43,6.9,28.84,18.14,28.84,10.49,0,17.83-12.06,17.83-29.19,0-13.27-5.09-28.48-17.68-28.48C969.05,809.8,963.8,824.48,963.8,838.63Z" transform="translate(-37.5 -198.21)"/><path class="cls-1" d="M1033.94,821.34c0-9.79-.15-18-.6-25.34h16.19l.9,12.76h.44a25.87,25.87,0,0,1,23.24-14.68c12.74,0,25.92,9.61,25.92,36.52v50.5H1081.6V833c0-12.23-3.9-21.49-13.94-21.49-7.34,0-12.44,6.12-14.39,12.58a25.37,25.37,0,0,0-.75,7v50h-18.58Z" transform="translate(-37.5 -198.21)"/><path class="cls-1" d="M1132.7,844.58c.45,15.37,10.79,22,22.48,22,8.54,0,14.69-1.39,20.23-3.84l2.7,14.85a60.17,60.17,0,0,1-25.48,5.24c-23.68,0-37.62-17-37.62-43,0-23.59,12.29-45.78,35.67-45.78,23.68,0,31.48,22.71,31.48,41.41a61.45,61.45,0,0,1-.6,9.09Zm32.07-15c.15-7.86-2.85-20.79-15.14-20.79-11.39,0-16.18,12-16.93,20.79Z" transform="translate(-37.5 -198.21)"/><path class="cls-1" d="M1196.09,861.35c4.2,3,12.14,6.12,18.73,6.12,8.1,0,11.7-3.85,11.7-9.44,0-5.77-3-8.74-12-12.4-14.24-5.77-20.24-14.86-20.09-24.82,0-15,10.64-26.73,27.58-26.73a38,38,0,0,1,19.33,5.06l-3.59,15.21a29.38,29.38,0,0,0-15.44-4.89c-6.6,0-10.19,3.66-10.19,8.9,0,5.42,3.44,8,12.74,11.89,13.19,5.59,19.33,13.45,19.48,26,0,15.38-10.34,26.56-29.68,26.56-8.84,0-16.78-2.44-22.18-5.94Z" transform="translate(-37.5 -198.21)"/><path class="cls-1" d="M1347.75,828.85h-38.07v34.6h42.57V881.1h-61V763.32H1350V781h-40.32v30.41h38.07Z" transform="translate(-37.5 -198.21)"/><path class="cls-1" d="M1367.68,757h18.59V881.1h-18.59Z" transform="translate(-37.5 -198.21)"/><path class="cls-1" d="M1419.23,844.58c.45,15.37,10.79,22,22.48,22,8.54,0,14.69-1.39,20.24-3.84l2.69,14.85a60.13,60.13,0,0,1-25.48,5.24c-23.68,0-37.61-17-37.61-43,0-23.59,12.29-45.78,35.67-45.78,23.68,0,31.47,22.71,31.47,41.41a61.45,61.45,0,0,1-.6,9.09Zm32.07-15c.15-7.86-2.84-20.79-15.13-20.79-11.39,0-16.19,12-16.94,20.79Z" transform="translate(-37.5 -198.21)"/><path class="cls-1" d="M1483.52,821.34c0-9.79-.15-18-.6-25.34h15.89l.75,12.58h.45c3.6-6.64,10.19-14.5,22.48-14.5,9.59,0,17.08,6.29,20.23,15.72h.3a30.61,30.61,0,0,1,9-10.66,22.07,22.07,0,0,1,14.69-5.06c12.14,0,24.43,9.61,24.43,36.87V881.1h-18v-47c0-14.15-4.2-22.54-13-22.54-6.3,0-10.95,5.24-12.89,11.36a35.57,35.57,0,0,0-.9,7.16v51h-18V831.82c0-11.88-4-20.27-12.58-20.27-6.9,0-11.55,6.29-13.19,12.23a21.16,21.16,0,0,0-1,7V881.1h-18Z" transform="translate(-37.5 -198.21)"/><path class="cls-1" d="M1623.64,844.58c.45,15.37,10.79,22,22.49,22,8.54,0,14.68-1.39,20.23-3.84l2.7,14.85a60.2,60.2,0,0,1-25.48,5.24c-23.68,0-37.62-17-37.62-43,0-23.59,12.29-45.78,35.67-45.78,23.68,0,31.47,22.71,31.47,41.41a61.45,61.45,0,0,1-.6,9.09Zm32.08-15c.15-7.86-2.85-20.79-15.14-20.79-11.39,0-16.19,12-16.94,20.79Z" transform="translate(-37.5 -198.21)"/><path class="cls-1" d="M1687.94,821.34c0-9.79-.16-18-.61-25.34h16.19l.9,12.76h.45a25.85,25.85,0,0,1,23.23-14.68c12.74,0,25.93,9.61,25.93,36.52v50.5h-18.44V833c0-12.23-3.89-21.49-13.93-21.49-7.35,0-12.45,6.12-14.39,12.58a25.37,25.37,0,0,0-.75,7v50h-18.58Z" transform="translate(-37.5 -198.21)"/><path class="cls-1" d="M1794,771.71V796h17.53v16.08H1794v37.56c0,10.31,2.4,15.73,9.44,15.73a23.39,23.39,0,0,0,7.19-1l.3,16.43c-2.69,1.22-7.49,2.09-13.34,2.09-6.74,0-12.43-2.62-15.88-7-3.9-4.89-5.7-12.58-5.7-23.76v-40h-10.49V796h10.49V776.78Z" transform="translate(-37.5 -198.21)"/><path class="cls-1" d="M1894,837.76c0,31.28-18.88,45.26-37.47,45.26-20.68,0-36.57-16.6-36.57-43.86,0-28,15.74-45.08,37.77-45.08C1879.46,794.08,1894,811.9,1894,837.76Zm-55,.87c0,16.43,6.89,28.84,18.13,28.84,10.49,0,17.84-12.06,17.84-29.19,0-13.27-5.1-28.48-17.69-28.48C1844.24,809.8,1839,824.48,1839,838.63Z" transform="translate(-37.5 -198.21)"/><polygon class="cls-1" points="218.85 151.45 236.09 154.03 221.44 175.58 208.51 167.82 218.85 151.45"/><path class="cls-1" d="M237.39,693.52c-59.27,26.3-107.73,20.68-125.82-19.82C96.79,640.6,246,386.71,246,386.71l-5.17-10.34S-1.07,713.68,43.47,809c23.54,50.37,114.73,38.11,231-12.92,84.44-37.07,183.3-92.55,282.44-153.62L464.34,568.2C383.61,618.83,304.74,663.64,237.39,693.52Z" transform="translate(-37.5 -198.21)"/><path class="cls-1" d="M1087.13,277.27,982,198.84S862.51,293.72,708.72,403.42L813.91,474C969.94,366.43,1087.13,277.27,1087.13,277.27Z" transform="translate(-37.5 -198.21)"/><path class="cls-1" d="M520.19,532.48l100.22,70.15c36.22-23.1,72.05-46.58,106.82-69.81L623.45,463.2C589.6,486.51,554.93,509.84,520.19,532.48Z" transform="translate(-37.5 -198.21)"/><path class="cls-1" d="M721.48,614.81l37,36.31c42-23.31,83.6-47.5,124-71.86l-40.23-39C798.54,568.18,758.35,592.88,721.48,614.81Z" transform="translate(-37.5 -198.21)"/><path class="cls-1" d="M499.59,734.69,527.22,766q24-10.26,48.24-21.47l-29-32.77C529.42,720.39,513.79,728,499.59,734.69Z" transform="translate(-37.5 -198.21)"/><path class="cls-1" d="M600.05,683.77l30.47,34.49q36.65-18,73.42-37.56L671.52,644Q633,666.11,600.05,683.77Z" transform="translate(-37.5 -198.21)"/><path class="cls-1" d="M1332.73,275.56l-55.15-37.92c-142.74,106.16-265.82,191.86-371,261l43.83,38.91C1165.44,403,1332.73,275.56,1332.73,275.56Z" transform="translate(-37.5 -198.21)"/><path class="cls-1" d="M385.6,780.58,414.91,809c14.06-4.68,28.33-9.76,42.74-15.14l-26-29.44C400.19,777,385.6,780.58,385.6,780.58Z" transform="translate(-37.5 -198.21)"/><path class="cls-1" d="M722.57,715.08l19.82,17.24c10.76-3,22.89-7,36.07-11.85L763,697.2C737.57,708.57,722.57,715.08,722.57,715.08Z" transform="translate(-37.5 -198.21)"/><path class="cls-1" d="M1287.92,466.88l-31-23.27c-70.4,45.33-162.63,94.62-250.61,138.6l25.25,21.88C1165.64,535.69,1287.92,466.88,1287.92,466.88Z" transform="translate(-37.5 -198.21)"/><path class="cls-1" d="M789.05,685.71l19.28,22.11s32.54-12.38,46.93-18.68l-24.85-22.61C816.13,673.11,801,680.27,789.05,685.71Z" transform="translate(-37.5 -198.21)"/><path class="cls-1" d="M869.81,648.2,890,673.31c27.46-12.7,56.16-26.53,85-40.81l-23.36-23.37C922.93,623.1,895.31,636.25,869.81,648.2Z" transform="translate(-37.5 -198.21)"/></svg>